<svg fill="#fff" id="Layer_1" data-name="Layer 1" xmlns="http://www.w3.org/2000/svg" viewBox="0 0 32 32"><path d="M18.78,26.06H15a75.27,75.27,0,0,1-8.66-.32A8.75,8.75,0,0,1,3.41,25,4.27,4.27,0,0,1,1,22a4.77,4.77,0,0,1,1.84-4.24c.35-.3.7-.56,1-.81a7.14,7.14,0,0,0,1.21-1,5.4,5.4,0,0,0,1-3.22c0-.46,0-.91.06-1.37a18.61,18.61,0,0,1,.3-3.35A10.07,10.07,0,0,1,9.78,2.39,8.85,8.85,0,0,1,16.12,0a9.13,9.13,0,0,1,6.1,2.39,10.07,10.07,0,0,1,3.32,5.55,18.61,18.61,0,0,1,.3,3.35c0,.46,0,.91.06,1.37a5.4,5.4,0,0,0,1,3.22,7.14,7.14,0,0,0,1.21,1c.34.25.69.51,1,.81A4.77,4.77,0,0,1,31,22,4.27,4.27,0,0,1,28.59,25a8.75,8.75,0,0,1-2.94.73A59.11,59.11,0,0,1,18.78,26.06ZM16.12,3.3a5.64,5.64,0,0,0-4.2,1.6A6.8,6.8,0,0,0,9.69,8.63a16,16,0,0,0-.23,2.75c0,.5,0,1-.06,1.5A8.48,8.48,0,0,1,7.6,18a10.56,10.56,0,0,1-1.75,1.54c-.3.22-.59.43-.84.64-.48.43-.79.93-.75,1.21a1.08,1.08,0,0,0,.62.63,6,6,0,0,0,1.83.41,71.62,71.62,0,0,0,8.29.29h2.58a63.21,63.21,0,0,0,7.71-.29,6.08,6.08,0,0,0,1.84-.41,1.09,1.09,0,0,0,.61-.63c0-.28-.27-.78-.75-1.21-.25-.21-.54-.42-.84-.64A10.56,10.56,0,0,1,24.4,18a8.48,8.48,0,0,1-1.8-5.15c0-.5,0-1-.06-1.5a16,16,0,0,0-.23-2.75A6.8,6.8,0,0,0,20.08,4.9,5.91,5.91,0,0,0,16.12,3.3Z"/><path d="M16,32a7.67,7.67,0,0,1-5.06-2.34,1.65,1.65,0,0,1,2.39-2.27A4.44,4.44,0,0,0,16,28.7a4.39,4.39,0,0,0,2.67-1.32,1.65,1.65,0,0,1,2.33,0,1.63,1.63,0,0,1,.06,2.32A7.67,7.67,0,0,1,16,32Z"/></svg>