<svg fill="#0d9ba2" id="Layer_1" data-name="Layer 1" xmlns="http://www.w3.org/2000/svg" viewBox="0 0 32 32"><path d="M28.1,32H3.9A3.91,3.91,0,0,1,0,28.1V3.9A3.91,3.91,0,0,1,3.9,0H28.1A3.91,3.91,0,0,1,32,3.9V28.1A3.91,3.91,0,0,1,28.1,32ZM3.9,2.38A1.53,1.53,0,0,0,2.38,3.9V28.1A1.53,1.53,0,0,0,3.9,29.62H28.1a1.53,1.53,0,0,0,1.52-1.52V3.9A1.53,1.53,0,0,0,28.1,2.38Z"/><path d="M30.81,11.93H1.19a1.2,1.2,0,0,1,0-2.39H30.81a1.2,1.2,0,0,1,0,2.39Z"/><path d="M11.21,32A1.19,1.19,0,0,1,10,30.81V10.73a1.19,1.19,0,1,1,2.38,0V30.81A1.19,1.19,0,0,1,11.21,32Z"/></svg>