<svg fill="#fff" id="Layer_1" data-name="Layer 1" xmlns="http://www.w3.org/2000/svg" viewBox="0 0 32 32"><path d="M15.89,26.52h-.22A16.72,16.72,0,0,1,.25,16.46L.05,16l.21-.47a17.2,17.2,0,0,1,15.85-10h.22A16.72,16.72,0,0,1,31.75,15.54L32,16l-.21.47A17.2,17.2,0,0,1,15.89,26.52ZM2.59,16a14.46,14.46,0,0,0,13.11,8.2A14.93,14.93,0,0,0,29.41,16,14.46,14.46,0,0,0,16.3,7.79h-.19A14.92,14.92,0,0,0,2.59,16Z"/><path d="M16,22.29A6.29,6.29,0,1,1,22.29,16,6.29,6.29,0,0,1,16,22.29ZM16,12a4,4,0,1,0,4,4A4,4,0,0,0,16,12Z"/></svg>