<svg fill="#fff" id="Layer_1" data-name="Layer 1" xmlns="http://www.w3.org/2000/svg" viewBox="0 0 32 32"><path d="M28.36,18l-.18-.11h0a2.19,2.19,0,0,1,0-3.62h0l.14-.08s0,0,.05,0a4.57,4.57,0,0,0,1.91-2.47,4.86,4.86,0,0,0,.2-1.33A4.51,4.51,0,0,0,27,5.91a4.62,4.62,0,0,0-1-.11,4.44,4.44,0,0,0-2.05.5h0a1.1,1.1,0,0,1-.26.14,2.06,2.06,0,0,1-1,.23,2.19,2.19,0,0,1-2.18-2.19,4.49,4.49,0,0,0-9,0A2.18,2.18,0,0,1,8.31,6.41,4.43,4.43,0,0,0,6,5.79a4.66,4.66,0,0,0-.93.09h0a4.5,4.5,0,0,0-3.57,4.4,4.93,4.93,0,0,0,.2,1.34A4.56,4.56,0,0,0,3.64,14.1h0l.18.11h0a2.19,2.19,0,0,1,0,3.62h0L3.64,18a4.58,4.58,0,0,0-1.92,2.48,4.86,4.86,0,0,0-.2,1.33,4.5,4.5,0,0,0,3.55,4.39,4.19,4.19,0,0,0,.95.1,4.44,4.44,0,0,0,2-.45,2.12,2.12,0,0,1,.56-.33,2.25,2.25,0,0,1,.81-.16,2.19,2.19,0,0,1,2.19,2.19,4.49,4.49,0,0,0,9,0,2.19,2.19,0,0,1,2.18-2.19,2,2,0,0,1,.69.12,2.07,2.07,0,0,1,.75.43,4.53,4.53,0,0,0,1.84.39,4.81,4.81,0,0,0,1-.11,4.51,4.51,0,0,0,3.49-4.38,4.86,4.86,0,0,0-.2-1.33A4.58,4.58,0,0,0,28.36,18ZM26,24a2,2,0,0,1-.68-.12,3.91,3.91,0,0,0-.75-.42A4.39,4.39,0,0,0,22.7,23a4.71,4.71,0,0,0-1,.11,4.5,4.5,0,0,0-3.49,4.38,2.18,2.18,0,1,1-4.36,0,4.49,4.49,0,0,0-3.55-4.39,4.25,4.25,0,0,0-1-.1,4.4,4.4,0,0,0-2,.46A2.21,2.21,0,0,1,6,24a2.2,2.2,0,0,1-2.19-2.19A2.17,2.17,0,0,1,4.8,20h0L5,19.84H5a4.49,4.49,0,0,0,1.91-2.47A4.5,4.5,0,0,0,5,12.22a1.18,1.18,0,0,1-.19-.11h0a2.24,2.24,0,0,1-1-1.82A2.2,2.2,0,0,1,7.05,8.35h0l-.17-.11.17.1h0A4.48,4.48,0,0,0,9.35,9a4.73,4.73,0,0,0,.93-.09h0a4.49,4.49,0,0,0,3.55-4.39,2.18,2.18,0,1,1,4.36,0,4.48,4.48,0,0,0,1.16,3,4.43,4.43,0,0,0,2.35,1.37,4,4,0,0,0,1,.11,4.51,4.51,0,0,0,2.11-.52L25,8.33h0A2.1,2.1,0,0,1,26,8.11a2.18,2.18,0,0,1,1.22,4h0l-.18.11h0l-.13.09a.71.71,0,0,0-.14.1,4.35,4.35,0,0,0-.64.57l-.13.15-.2.25-.09.13a.61.61,0,0,0-.07.1l-.1.16a4.31,4.31,0,0,0-.41.93A4.48,4.48,0,0,0,27,19.84a1.18,1.18,0,0,1,.19.11h0a2.17,2.17,0,0,1,1,1.81A2.2,2.2,0,0,1,26,24Z"/><path d="M7.05,8.34h0l-.17-.11Z"/><path d="M16,21.62A5.62,5.62,0,1,1,21.62,16,5.62,5.62,0,0,1,16,21.62Zm0-8.93A3.31,3.31,0,1,0,19.31,16,3.31,3.31,0,0,0,16,12.69Z"/></svg>