<svg fill="#fff" id="Layer_1" data-name="Layer 1" xmlns="http://www.w3.org/2000/svg" viewBox="0 0 32 32"><path d="M30.78,31.49H4a4,4,0,0,1-4-4V1.73a1.22,1.22,0,1,1,2.43,0V27.51A1.55,1.55,0,0,0,4,29.06H30.78a1.22,1.22,0,1,1,0,2.43Z"/><path d="M9.47,26A1.22,1.22,0,0,1,8.25,24.8V15.71a1.22,1.22,0,1,1,2.43,0V24.8A1.21,1.21,0,0,1,9.47,26Z"/><path d="M17.64,26a1.22,1.22,0,0,1-1.22-1.22V4.23a1.22,1.22,0,1,1,2.44,0V24.8A1.22,1.22,0,0,1,17.64,26Z"/><path d="M25.81,26A1.21,1.21,0,0,1,24.6,24.8V10.67a1.22,1.22,0,0,1,2.43,0V24.8A1.22,1.22,0,0,1,25.81,26Z"/></svg>